<svg width="40" height="37" viewBox="0 0 50 47" fill="none" xmlns="http://www.w3.org/2000/svg">
<path d="M25.5791 7.21665C25.4241 7.0683 25.2177 6.9855 25.0031 6.9855C24.7885 6.9855 24.5821 7.0683 24.4271 7.21665L5.25002 25.5364C5.16858 25.6143 5.10379 25.7079 5.05957 25.8116C5.01534 25.9153 4.99261 26.0268 4.99273 26.1395L4.98961 43.3332C4.98961 44.2173 5.3408 45.0651 5.96592 45.6902C6.59104 46.3154 7.43888 46.6666 8.32293 46.6666H18.3333C18.7754 46.6666 19.1993 46.491 19.5118 46.1784C19.8244 45.8658 20 45.4419 20 44.9999V30.8333C20 30.6122 20.0878 30.4003 20.2441 30.244C20.4003 30.0877 20.6123 29.9999 20.8333 29.9999H29.1666C29.3876 29.9999 29.5996 30.0877 29.7559 30.244C29.9122 30.4003 30 30.6122 30 30.8333V44.9999C30 45.4419 30.1756 45.8658 30.4881 46.1784C30.8007 46.491 31.2246 46.6666 31.6666 46.6666H41.6728C42.5569 46.6666 43.4047 46.3154 44.0299 45.6902C44.655 45.0651 45.0062 44.2173 45.0062 43.3332V26.1395C45.0063 26.0268 44.9836 25.9153 44.9393 25.8116C44.8951 25.7079 44.8303 25.6143 44.7489 25.5364L25.5791 7.21665Z" fill="#545454"/>
<path d="M49.4697 22.0989L41.6781 14.6448V3.33333C41.6781 2.8913 41.5025 2.46738 41.1899 2.15482C40.8773 1.84226 40.4534 1.66666 40.0114 1.66666H35.0114C34.5694 1.66666 34.1455 1.84226 33.8329 2.15482C33.5203 2.46738 33.3447 2.8913 33.3447 3.33333V6.66665L27.3114 0.897914C26.7468 0.327082 25.9073 0 25 0C24.0958 0 23.2583 0.327083 22.6937 0.898956L0.537538 22.0968C-0.110377 22.7218 -0.191627 23.7499 0.397955 24.427C0.546008 24.5979 0.727289 24.7369 0.930765 24.8355C1.13424 24.9342 1.35566 24.9903 1.58154 25.0007C1.80742 25.011 2.03303 24.9753 2.24466 24.8956C2.45629 24.816 2.6495 24.6941 2.81253 24.5374L24.4271 3.88332C24.5821 3.73497 24.7885 3.65217 25.0031 3.65217C25.2177 3.65217 25.4241 3.73497 25.5791 3.88332L47.1958 24.5374C47.5142 24.8428 47.9407 25.0095 48.3818 25.0009C48.8229 24.9923 49.2426 24.8091 49.5489 24.4916C50.1885 23.8291 50.1353 22.7354 49.4697 22.0989Z" fill="#545454"/>
</svg>
